<svg width="20" height="20" viewBox="0 0 20 20" fill="none" xmlns="http://www.w3.org/2000/svg">
<g clip-path="url(#clip0_28_762)">
<path d="M11.7667 11.7666C11.5378 12.0122 11.2618 12.2092 10.9551 12.3459C10.6485 12.4825 10.3174 12.556 9.98173 12.5619C9.64605 12.5678 9.31262 12.5061 9.00133 12.3804C8.69004 12.2546 8.40725 12.0675 8.16986 11.8301C7.93246 11.5927 7.74531 11.3099 7.61958 10.9986C7.49384 10.6873 7.43209 10.3539 7.43801 10.0182C7.44394 9.68253 7.51741 9.35148 7.65405 9.04482C7.79069 8.73815 7.9877 8.46215 8.23332 8.23328M14.95 14.95C13.5255 16.0358 11.7909 16.6373 9.99999 16.6666C4.16665 16.6666 0.833313 9.99995 0.833313 9.99995C1.86989 8.06819 3.30759 6.38045 5.04998 5.04994L14.95 14.95ZM8.24999 3.53327C8.8236 3.39901 9.41087 3.33189 9.99999 3.33327C15.8333 3.33327 19.1667 9.99995 19.1667 9.99995C18.6608 10.9463 18.0575 11.8372 17.3667 12.6583L8.24999 3.53327Z" stroke="#96A6C2" stroke-width="1.66667" stroke-linecap="round" stroke-linejoin="round"/>
<path d="M0.833313 0.833252L19.1667 19.1666" stroke="#96A6C2" stroke-width="1.66667" stroke-linecap="round" stroke-linejoin="round"/>
</g>
<defs>
<clipPath id="clip0_28_762">
<rect width="20" height="20" fill="white"/>
</clipPath>
</defs>
</svg>
