<svg width="25" height="25" viewBox="0 0 25 25" fill="none" xmlns="http://www.w3.org/2000/svg">
<path d="M21.2382 8.19802L14.7659 2.52401C14.1726 1.99334 13.4045 1.69995 12.6085 1.69995C11.8125 1.69995 11.0444 1.99334 10.4511 2.52401L3.97884 8.19802C3.6362 8.50446 3.36279 8.88037 3.17679 9.30073C2.99079 9.72109 2.89647 10.1762 2.90013 10.6359V20.0638C2.90013 20.9221 3.24107 21.7452 3.84797 22.3521C4.45486 22.959 5.27798 23.3 6.13625 23.3H19.0808C19.939 23.3 20.7622 22.959 21.3691 22.3521C21.9759 21.7452 22.3169 20.9221 22.3169 20.0638V10.6251C22.319 10.1673 22.224 9.71419 22.038 9.2958C21.8521 8.87742 21.5794 8.50325 21.2382 8.19802ZM14.7659 21.1425H10.4511V15.749C10.4511 15.4629 10.5647 15.1885 10.767 14.9862C10.9693 14.7839 11.2437 14.6703 11.5298 14.6703H13.6872C13.9733 14.6703 14.2477 14.7839 14.45 14.9862C14.6523 15.1885 14.7659 15.4629 14.7659 15.749V21.1425ZM20.1595 20.0638C20.1595 20.3499 20.0458 20.6243 19.8435 20.8266C19.6412 21.0289 19.3669 21.1425 19.0808 21.1425H16.9233V15.749C16.9233 14.8907 16.5824 14.0676 15.9755 13.4607C15.3686 12.8538 14.5455 12.5129 13.6872 12.5129H11.5298C10.6715 12.5129 9.8484 12.8538 9.24151 13.4607C8.63462 14.0676 8.29367 14.8907 8.29367 15.749V21.1425H6.13625C5.85016 21.1425 5.57579 21.0289 5.37349 20.8266C5.17119 20.6243 5.05755 20.3499 5.05755 20.0638V10.6251C5.05774 10.472 5.09055 10.3206 5.15378 10.1811C5.21702 10.0416 5.30924 9.91717 5.42431 9.81609L11.8966 4.15286C12.0934 3.97992 12.3465 3.88455 12.6085 3.88455C12.8705 3.88455 13.1236 3.97992 13.3205 4.15286L19.7927 9.81609C19.9078 9.91717 20 10.0416 20.0632 10.1811C20.1265 10.3206 20.1593 10.472 20.1595 10.6251V20.0638Z" fill="currentColor"/>
</svg>
