<svg width="25" height="25" viewBox="0 0 25 25" fill="none" xmlns="http://www.w3.org/2000/svg">
<path d="M12.8393 12.552C15.811 12.552 18.2179 10.0788 18.2179 7.05083C18.2179 4.06913 15.811 1.69995 12.8393 1.69995C9.87993 1.69995 7.44855 4.1038 7.46083 7.07395C7.47311 10.0903 9.86765 12.552 12.8393 12.552ZM12.8393 10.5295C11.1447 10.5295 9.70802 9.01552 9.70802 7.07395C9.69574 5.1786 11.1325 3.72242 12.8393 3.72242C14.5585 3.72242 15.9707 5.15549 15.9707 7.05083C15.9707 8.99241 14.5462 10.5295 12.8393 10.5295ZM5.17681 23.3H20.4896C22.614 23.3 23.6332 22.6643 23.6332 21.3006C23.6332 18.1224 19.4213 13.8926 12.8393 13.8926C6.25742 13.8926 2.0332 18.1224 2.0332 21.3006C2.0332 22.6643 3.05242 23.3 5.17681 23.3ZM4.79614 21.2775C4.50142 21.2775 4.39091 21.185 4.39091 20.977C4.39091 19.2088 7.42399 15.915 12.8393 15.915C18.2424 15.915 21.2755 19.2088 21.2755 20.977C21.2755 21.185 21.165 21.2775 20.8703 21.2775H4.79614Z" fill="currentColor"/>
</svg>
