<svg width="110" height="55" viewBox="0 0 110 55" fill="none" xmlns="http://www.w3.org/2000/svg">
<path d="M5.5 55C2.46243 55 -0.0285362 52.5313 0.274642 49.5089C1.50626 37.2308 6.84172 25.6626 15.5031 16.7248C25.4461 6.46434 38.9917 0.475896 53.2724 0.0271085C67.5531 -0.421679 81.448 4.70442 92.0157 14.3203C101.221 22.6966 107.272 33.907 109.273 46.0835C109.765 49.0809 107.434 51.7011 104.402 51.8918C101.371 52.0826 98.7934 49.7678 98.2262 46.7836C96.4545 37.4619 91.7031 28.9081 84.6126 22.4562C76.1584 14.7635 65.0425 10.6627 53.6179 11.0217C42.1934 11.3807 31.3569 16.1715 23.4024 24.3798C16.731 31.2642 12.526 40.0995 11.3432 49.514C10.9645 52.5279 8.53757 55 5.5 55Z" fill="currentColor"/>
</svg>
