<svg width="25" height="25" viewBox="0 0 25 25" fill="none" xmlns="http://www.w3.org/2000/svg">
<g clip-path="url(#clip0_452_933)">
<path d="M11.2156 3.42664C11.515 2.50537 12.8183 2.50538 13.1177 3.42664L14.6365 8.10055C14.7704 8.51254 15.1543 8.79148 15.5875 8.79149L20.502 8.79168C21.4707 8.79172 21.8735 10.0313 21.0898 10.6007L17.114 13.4895C16.7635 13.7441 16.6169 14.1955 16.7507 14.6075L18.2692 19.2815C18.5685 20.2028 17.5141 20.9689 16.7304 20.3995L12.7544 17.511C12.4039 17.2564 11.9293 17.2564 11.5789 17.511L7.60285 20.3995C6.81914 20.9689 5.76472 20.2028 6.06403 19.2815L7.58251 14.6075C7.71636 14.1955 7.56972 13.7441 7.21926 13.4895L3.24346 10.6007C2.4598 10.0313 2.86255 8.79172 3.83124 8.79168L8.74573 8.79149C9.17893 8.79148 9.56286 8.51254 9.69674 8.10055L11.2156 3.42664Z" stroke="currentColor" stroke-width="2"/>
</g>
<defs>
<clipPath id="clip0_452_933">
<rect width="24" height="24" fill="white" transform="translate(0.166626 0.5)"/>
</clipPath>
</defs>
</svg>
